<?xml version="1.0" encoding="UTF-8" standalone="no"?>
<svg
   xmlns:dc="http://purl.org/dc/elements/1.1/"
   xmlns:cc="http://creativecommons.org/ns#"
   xmlns:rdf="http://www.w3.org/1999/02/22-rdf-syntax-ns#"
   xmlns:svg="http://www.w3.org/2000/svg"
   xmlns="http://www.w3.org/2000/svg"
   xmlns:sodipodi="http://sodipodi.sourceforge.net/DTD/sodipodi-0.dtd"
   xmlns:inkscape="http://www.inkscape.org/namespaces/inkscape"
   width="60"
   height="60"
   viewBox="0 0 60 60"
   fill="none"
   version="1.1"
   id="svg1676"
   sodipodi:docname="icon07.svg"
   inkscape:version="0.92.5 (2060ec1f9f, 2020-04-08)">
  <metadata
     id="metadata1680">
    <rdf:RDF>
      <cc:Work
         rdf:about="">
        <dc:format>image/svg+xml</dc:format>
        <dc:type
           rdf:resource="http://purl.org/dc/dcmitype/StillImage" />
      </cc:Work>
    </rdf:RDF>
  </metadata>
  <sodipodi:namedview
     pagecolor="#ffffff"
     bordercolor="#666666"
     borderopacity="1"
     objecttolerance="10"
     gridtolerance="10"
     guidetolerance="10"
     inkscape:pageopacity="0"
     inkscape:pageshadow="2"
     inkscape:window-width="1366"
     inkscape:window-height="717"
     id="namedview1678"
     showgrid="false"
     inkscape:zoom="4.2175781"
     inkscape:cx="43.816726"
     inkscape:cy="16.935553"
     inkscape:window-x="0"
     inkscape:window-y="0"
     inkscape:window-maximized="1"
     inkscape:current-layer="svg1676" />
  <circle
     cx="30"
     cy="30"
     r="30"
     fill="#FCF0F3"
     id="circle1655" />
  <g
     clip-path="url(#clip0)"
     id="g1669"
     style="stroke:#ff5555">
    <path
       d="m 21.1167,42.1332 -2.1667,-2.6 c -0.65,-0.8666 -1.0833,-1.95 -1.0833,-3.0333 v -5.6333 c 0,-0.8667 0.7583,-1.625 1.625,-1.625 0.8666,0 1.625,0.7583 1.625,1.625 v 4.1166"
       id="path1657"
       inkscape:connector-curvature="0"
       style="stroke:#ff5555;stroke-width:1.70000005;stroke-linecap:round;stroke-linejoin:round" />
    <path
       d="m 25.8833,42.2416 v -3.25 c 0,-0.975 -0.325,-1.95 -0.8666,-2.7084 l -1.1917,-1.95 c -0.2167,-0.325 -0.5417,-0.65 -0.975,-0.65 -0.4333,-0.1083 -0.8667,0 -1.1917,0.2167 -0.65,0.4333 -0.8666,1.3 -0.5416,1.95 l 1.5166,2.3833"
       id="path1659"
       inkscape:connector-curvature="0"
       style="stroke:#ff5555;stroke-width:1.70000005;stroke-linecap:round;stroke-linejoin:round" />
    <path
       d="m 38.8833,42.1332 2.1667,-2.6 c 0.65,-0.8666 1.0833,-1.95 1.0833,-3.0333 v -5.6333 c 0,-0.8667 -0.7583,-1.625 -1.625,-1.625 -0.8666,0 -1.625,0.7583 -1.625,1.625 v 4.1166"
       id="path1661"
       inkscape:connector-curvature="0"
       style="stroke:#ff5555;stroke-width:1.70000005;stroke-linecap:round;stroke-linejoin:round" />
    <path
       d="m 34.1167,42.1332 v -3.25 c 0,-0.975 0.325,-1.95 0.8666,-2.7083 l 1.1917,-1.8417 c 0.2167,-0.325 0.5417,-0.65 0.975,-0.65 0.4333,-0.1083 0.8667,0 1.1917,0.2167 0.65,0.4333 0.8666,1.3 0.5416,1.95 l -1.5166,2.3833"
       id="path1663"
       inkscape:connector-curvature="0"
       style="stroke:#ff5555;stroke-width:1.70000005;stroke-linecap:round;stroke-linejoin:round" />
    <path
       d="m 34.875,26.75 c 0,1.7333 -0.8667,3.3583 -2.3833,4.225 -1.5167,0.8666 -3.3584,0.8666 -4.875,0 C 26.1,30.1083 25.125,28.4833 25.125,26.75 c 0,-4.1167 4.1167,-8.9917 4.875,-8.9917 0.7583,0 4.875,4.875 4.875,8.9917 z"
       id="path1665"
       inkscape:connector-curvature="0"
       style="stroke:#ff5555;stroke-width:1.70000005;stroke-linecap:round;stroke-linejoin:round" />
    <path
       d="m 30,28.375 c -0.8667,0 -1.625,-0.7583 -1.625,-1.625"
       id="path1667"
       inkscape:connector-curvature="0"
       style="stroke:#ff5555;stroke-width:1.70000005;stroke-linecap:round;stroke-linejoin:round" />
  </g>
  <defs
     id="defs1674">
    <clipPath
       id="clip0">
      <rect
         width="26"
         height="26"
         fill="white"
         transform="translate(17 17)"
         id="rect1671" />
    </clipPath>
  </defs>
</svg>
