<?xml version="1.0" encoding="UTF-8" standalone="no"?>
<svg
   xmlns:dc="http://purl.org/dc/elements/1.1/"
   xmlns:cc="http://creativecommons.org/ns#"
   xmlns:rdf="http://www.w3.org/1999/02/22-rdf-syntax-ns#"
   xmlns:svg="http://www.w3.org/2000/svg"
   xmlns="http://www.w3.org/2000/svg"
   xmlns:sodipodi="http://sodipodi.sourceforge.net/DTD/sodipodi-0.dtd"
   xmlns:inkscape="http://www.inkscape.org/namespaces/inkscape"
   width="60"
   height="60"
   viewBox="0 0 60 60"
   fill="none"
   version="1.1"
   id="svg1000"
   sodipodi:docname="icon01.svg"
   inkscape:version="0.92.5 (2060ec1f9f, 2020-04-08)">
  <metadata
     id="metadata1004">
    <rdf:RDF>
      <cc:Work
         rdf:about="">
        <dc:format>image/svg+xml</dc:format>
        <dc:type
           rdf:resource="http://purl.org/dc/dcmitype/StillImage" />
      </cc:Work>
    </rdf:RDF>
  </metadata>
  <sodipodi:namedview
     pagecolor="#ffffff"
     bordercolor="#666666"
     borderopacity="1"
     objecttolerance="10"
     gridtolerance="10"
     guidetolerance="10"
     inkscape:pageopacity="0"
     inkscape:pageshadow="2"
     inkscape:window-width="1366"
     inkscape:window-height="717"
     id="namedview1002"
     showgrid="false"
     inkscape:zoom="3.1171624"
     inkscape:cx="30.582766"
     inkscape:cy="70.626006"
     inkscape:window-x="0"
     inkscape:window-y="0"
     inkscape:window-maximized="1"
     inkscape:current-layer="svg1000" />
  <circle
     cx="30"
     cy="30"
     r="30"
     fill="#FCF0F3"
     id="circle975" />
  <g
     clip-path="url(#clip0)"
     id="g993">
    <path
       d="m 33.1286,41.5554 c 0.6665,-0.9331 1.333,-2.2661 1.333,-3.5991 0,-1.7328 -0.9331,-3.599 -3.999,-5.3319 -0.9331,-0.5332 -2.1327,-0.9331 -3.4657,-1.333 -0.5332,1.0664 -5.7319,11.597 4.3988,12.1302 0,0 0.1333,-0.1333 0.2666,-0.1333 0.1333,0 0.2666,-0.1333 0.2666,-0.1333 0,0 0,0 0.1333,-0.1333 0.1333,-0.1333 0.1333,-0.1333 0.2666,-0.2666 0.1333,-0.2666 0.3999,-0.6665 0.7998,-1.1997 z"
       id="path977"
       inkscape:connector-curvature="0"
       style="fill:#fcf0f3" />
    <path
       d="m 28.5964,28.3589 c 0,0 -0.3999,-0.2666 -1.1996,-0.6665 -0.7998,-0.3999 -1.9995,-0.3999 -1.9995,-0.3999 0,0 1.1997,-0.9331 2.6659,-1.9995 -4.3988,-1.5996 -8.2644,-1.7329 -9.1975,-1.7329 h -0.1333 l -3.1992,5.9984 c 0.7998,0 3.4658,0 6.3983,0.3999 3.0659,0.3999 6.5316,1.0664 8.7977,2.2661 3.0659,1.8662 4.1323,3.8657 4.1323,5.7318 0,3.0659 -2.666,5.4653 -2.666,5.4653 0.1333,0 0.2666,0 0.3999,0 0.1333,0 0.2666,0 0.5332,-0.1333 0.9331,-0.1333 2.1328,-1.1997 3.1991,-2.666 0.9331,-1.4663 1.5996,-3.3325 1.5996,-5.3319 0,-2.2661 -0.9331,-4.5322 -3.3324,-6.5316 -1.333,-1.0664 -2.7993,-1.9995 -4.1323,-2.666 z"
       id="path979"
       inkscape:connector-curvature="0"
       style="fill:#fcf0f3" />
    <path
       d="M 29.1297,15.6955 C 25.9305,13.696 22.9979,15.5622 22.9979,15.5622 l 9.1976,4.7988 c 0,0 0.2666,-2.7993 -3.0658,-4.6655 z"
       id="path983"
       inkscape:connector-curvature="0"
       style="fill:#ff5555" />
    <path
       d="m 28.5964,22.0938 c 3.1992,0.7998 3.4658,-1.333 3.4658,-1.333 l -9.1976,-4.7987 c 0,0 2.5327,5.3319 5.7318,6.1317 z"
       id="path985"
       inkscape:connector-curvature="0"
       style="fill:#ff5555" />
    <path
       d="m 42.9927,21.2941 c 0,0 -1.333,-3.0659 -4.2656,-3.0659 -1.8662,0 -3.0658,0.9331 -4.7987,2.2661 -0.9331,0.7998 -3.5991,2.7992 -5.7318,4.5321 -4.2656,-1.7329 -8.3978,-1.8662 -9.3309,-1.8662 -0.1333,0 -0.1333,0 -0.1333,0 L 15,29.5586 c 0,0 0,0 0,0.1333 0,0 0,0 0,0.1333 0,0 0,0 0.1333,0 h 0.1333 c 0.6665,0 3.4658,0 6.3983,0.3999 0.1333,0 0.3999,0 0.5332,0.1333 -0.5332,0.6665 -3.1991,3.599 -3.1991,8.2645 0,5.0653 4.6654,7.0648 7.1981,7.1981 2.9325,0.1333 4.1322,-0.7998 6.265,-1.8662 1.0664,-0.5332 2.9326,-1.5996 3.8657,-3.0659 0.933,-1.4663 1.7328,-3.4657 1.7328,-5.5985 0,-2.2661 -0.9331,-4.7987 -3.4657,-6.7982 -1.333,-1.0664 -2.7993,-1.9995 -4.1323,-2.666 l 2.9326,-3.8656 c 0,0 -0.5332,2.5326 2.666,2.7992 3.1991,0.2666 6.9315,-3.0658 6.9315,-3.0658 0,0 -8.7977,0.1333 -9.0643,0 -0.1333,-0.1333 -0.1333,-0.2666 0,-0.3999 z M 31.9289,43.0217 c 0,0 -0.1333,0 0,0 -0.1333,0.1333 -0.3999,0.2666 -0.5332,0.3999 -10.1307,-0.6665 -4.932,-11.1971 -4.3988,-12.2634 1.333,0.3998 2.5326,0.7997 3.4657,1.3329 3.0659,1.7329 3.999,3.7324 3.999,5.332 0,1.4662 -0.6665,2.6659 -1.333,3.599 -0.2666,0.5332 -0.6665,0.7998 -0.9331,1.0664 -0.1333,0.3999 -0.1333,0.3999 -0.2666,0.5332 z m 2.5327,-14.2629 c 2.3993,1.9995 3.3324,4.2655 3.3324,6.5316 0,1.9995 -0.6665,3.8656 -1.5995,5.3319 -0.9331,1.4663 -2.1328,2.2661 -3.1992,2.666 -0.1333,0.1333 -0.3999,0.1333 -0.5332,0.1333 -0.1333,0 -0.2666,0 -0.3999,0 0,0 2.666,-2.3994 2.666,-5.4652 0,-1.8662 -1.0664,-3.8657 -4.1323,-5.7319 -2.266,-1.3329 -5.7318,-1.9994 -8.7977,-2.266 -2.7992,-0.3999 -5.4652,-0.3999 -6.265,-0.3999 l 3.1992,-5.9985 h 0.1333 c 0.9331,0 4.7987,0.1333 9.1976,1.5996 -1.4663,1.1997 -2.666,1.9995 -2.666,1.9995 0,0 1.1997,0.1333 1.9995,0.3999 0.7998,0.3999 1.1996,0.6665 1.1996,0.6665 l 1.5996,-2.1328 c 1.4663,0.7998 2.9326,1.5996 4.2656,2.666 z"
       id="path987"
       inkscape:connector-curvature="0"
       style="fill:#ff5555;fill-opacity:1" />
  </g>
  <defs
     id="defs998">
    <clipPath
       id="clip0">
      <rect
         width="30.1254"
         height="31.0585"
         fill="white"
         transform="translate(15 14.7624)"
         id="rect995" />
    </clipPath>
  </defs>
</svg>
