<?xml version="1.0" encoding="UTF-8" standalone="no"?>
<svg
   xmlns:dc="http://purl.org/dc/elements/1.1/"
   xmlns:cc="http://creativecommons.org/ns#"
   xmlns:rdf="http://www.w3.org/1999/02/22-rdf-syntax-ns#"
   xmlns:svg="http://www.w3.org/2000/svg"
   xmlns="http://www.w3.org/2000/svg"
   xmlns:sodipodi="http://sodipodi.sourceforge.net/DTD/sodipodi-0.dtd"
   xmlns:inkscape="http://www.inkscape.org/namespaces/inkscape"
   width="60"
   height="60"
   viewBox="0 0 60 60"
   fill="none"
   version="1.1"
   id="svg2017"
   sodipodi:docname="icon04.svg"
   inkscape:version="0.92.5 (2060ec1f9f, 2020-04-08)">
  <metadata
     id="metadata2023">
    <rdf:RDF>
      <cc:Work
         rdf:about="">
        <dc:format>image/svg+xml</dc:format>
        <dc:type
           rdf:resource="http://purl.org/dc/dcmitype/StillImage" />
      </cc:Work>
    </rdf:RDF>
  </metadata>
  <defs
     id="defs2021" />
  <sodipodi:namedview
     pagecolor="#ffffff"
     bordercolor="#666666"
     borderopacity="1"
     objecttolerance="10"
     gridtolerance="10"
     guidetolerance="10"
     inkscape:pageopacity="0"
     inkscape:pageshadow="2"
     inkscape:window-width="1366"
     inkscape:window-height="717"
     id="namedview2019"
     showgrid="false"
     inkscape:zoom="4.4083333"
     inkscape:cx="3.6627265"
     inkscape:cy="10.073975"
     inkscape:window-x="0"
     inkscape:window-y="0"
     inkscape:window-maximized="1"
     inkscape:current-layer="svg2017" />
  <circle
     cx="30"
     cy="30"
     r="30"
     fill="#FCF0F3"
     id="circle2005" />
  <path
     d="m 39.10648,20.0407 c 1.3728,-0.2746 2.4712,-1.3729 2.4712,-2.7458 0.1372,-1.6474 -0.9611,-2.883 -2.1967,-3.1576 -0.2745,0 -0.4118,-0.1373 -0.6864,-0.1373 h -0.4119 c -0.1372,0 -0.1372,0 -0.2745,0 -1.6475,0.2746 -2.7458,1.7847 -2.4712,3.4322 0.4118,1.6475 1.922,2.7458 3.5695,2.6085 z"
     id="path2007"
     inkscape:connector-curvature="0"
     style="fill:#ff5555" />
  <path
     d="m 45.024705,29.239 c -2.6084,-0.1373 -5.0796,-0.1373 -7.6881,-0.2746 -0.1373,0 -0.2746,0 -0.2746,0.2746 0,0.4119 -0.1373,0.8237 -0.1373,1.2356 -0.2745,1.5102 -0.4118,2.883 -0.6864,4.3932 -0.2746,1.5102 -0.4119,3.0203 -0.6864,4.3932 -0.2746,1.5102 -0.4119,2.8831 -0.6865,4.3932 -0.1373,0.8238 -0.2746,1.6475 -0.4119,2.4712 0,0.1373 0,0.2746 0.1373,0.2746 0.1373,0 0.2746,0 0.2746,-0.1373 0,0 0,0 0,-0.1373 1.7848,-3.1576 3.5695,-6.4525 5.217,-9.7474 0.1372,-0.2746 0.2745,-0.5492 0.5491,-0.961 0,0.2745 0.1373,0.5491 0.1373,0.6864 0.8237,3.2949 1.6475,6.5898 2.3339,9.8847 0,0.1373 0.1373,0.2746 0.2746,0.2746 0.1373,0 0.2745,-0.1373 0.2745,-0.2746 0.1373,-0.8237 0.1373,-1.7847 0.2746,-2.6084 0.1373,-1.6475 0.2746,-3.1577 0.4119,-4.8051 0.1373,-1.6475 0.2746,-3.1576 0.4119,-4.8051 0.1372,-1.5102 0.2745,-3.0203 0.4118,-4.5305 0.1373,0 0,0 -0.1373,0 z"
     id="path2009"
     inkscape:connector-curvature="0"
     style="fill:#ff5555" />
  <path
     style="fill:#ff5555"
     d="m 25.667969,20.041016 c -0.1373,0 -0.138091,0.136137 -0.275391,0.273437 0,0.1372 -5.81e-4,0.275391 0.136719,0.275391 h 0.138672 c 3.1576,0.961 6.451675,1.921812 9.609375,2.882812 l 0.136718,0.136719 c 0.0423,0.08456 0.08466,0.169329 0.126954,0.253906 l -5.308594,2.947266 -0.121094,0.06641 c -0.120038,0.06665 -0.05208,0.186359 -0.105469,0.373047 0.0666,0.119954 0.131906,0.240483 0.251953,0.173828 l 0.121094,-0.06641 c 1.978189,-0.424567 3.994678,-0.870517 6.007813,-1.314453 0.258033,0.852465 0.453122,1.722747 0.537109,2.646484 0,0.1373 0.138091,0.275391 0.275391,0.275391 h 0.136719 c 0.960999,0 1.921812,-0.138672 2.882812,-0.138672 1.5102,-0.1373 3.157869,-0.136138 4.667969,-0.273438 0.2746,0 0.27539,-0.137509 0.27539,-0.412109 0.1373,-0.1373 0,-0.410947 0,-0.685547 -0.5492,-1.7847 -1.373565,-3.432678 -2.197265,-5.080078 -0.4119,-0.8238 -0.823847,-1.510866 -1.373047,-2.197266 -0.1373,-0.1373 -0.274809,-0.136718 -0.412109,-0.136718 h -7.6875 -7.6875 z"
     id="path2011"
     inkscape:connector-curvature="0" />
  <path
     style="fill:#ff5555"
     inkscape:connector-curvature="0"
     id="path2025"
     d="m 17.921759,18.190295 c -1.398755,0.05889 -2.726337,-0.747507 -3.05201,-2.081221 -0.524072,-1.567832 0.249776,-3.028698 1.384969,-3.588564 0.266665,-0.06512 0.367476,-0.231066 0.634239,-0.296205 l 0.400143,-0.09771 c 0.133284,-0.03255 0.133284,-0.03255 0.266665,-0.06512 1.665615,-0.12405 3.090785,1.082414 3.214835,2.748029 -0.0092,1.698161 -1.215795,3.123355 -2.848841,3.380786 z"
     inkscape:transform-center-x="-3.6952468"
     inkscape:transform-center-y="-11.803422" />
  <path
     style="fill:#ff5555"
     inkscape:connector-curvature="0"
     id="path2027"
     d="m 13.3413,29.239 c 2.6084,-0.1373 5.0796,-0.1373 7.6881,-0.2746 0.1373,0 0.2746,0 0.2746,0.2746 0,0.4119 0.1373,0.8237 0.1373,1.2356 0.2745,1.5102 0.4118,2.883 0.6864,4.3932 0.2746,1.5102 0.4119,3.0203 0.6864,4.3932 0.2746,1.5102 0.4119,2.8831 0.6865,4.3932 0.1373,0.8238 0.2746,1.6475 0.4119,2.4712 0,0.1373 0,0.2746 -0.1373,0.2746 -0.1373,0 -0.2746,0 -0.2746,-0.1373 0,0 0,0 0,-0.1373 -1.7848,-3.1576 -3.5695,-6.4525 -5.217,-9.7474 -0.1372,-0.2746 -0.2745,-0.5492 -0.5491,-0.961 0,0.2745 -0.1373,0.5491 -0.1373,0.6864 -0.8237,3.2949 -1.6475,6.5898 -2.3339,9.8847 0,0.1373 -0.1373,0.2746 -0.2746,0.2746 -0.1373,0 -0.2745,-0.1373 -0.2745,-0.2746 C 14.5769,45.1644 14.5769,44.2034 14.4396,43.3797 14.3023,41.7322 14.165,40.222 14.0277,38.5746 13.8904,36.9271 13.7531,35.417 13.6158,33.7695 13.4786,32.2593 13.3413,30.7492 13.204,29.239 c -0.1373,0 0,0 0.1373,0 z" />
  <path
     style="fill:#ff5555"
     d="m 30.365234,15.777344 -0.132812,0.03125 -7.46875,1.824218 -7.46875,1.824219 c -0.133381,0.03257 -0.266376,0.06452 -0.367188,0.230469 -0.3707,0.797087 -0.609728,1.562942 -0.814453,2.460938 -0.409401,1.795771 -0.817568,3.59104 -0.927734,5.455078 0.158206,1.275325 1.1972,0.951062 2.117773,0.932834 2.075801,0.0106 3.73567,-0.05447 5.595118,-0.09104 0.133382,-0.03257 0.233741,-0.19865 0.201171,-0.332031 -0.132939,-0.886656 -0.02393,-2.136605 0.126953,-3.357422 2.284884,-0.203519 4.583062,-0.403613 6.828126,-0.615234 l 0.134765,0.02734 c 0.134534,0.02748 0.162003,-0.107761 0.189453,-0.242188 -0.10705,-0.161997 -0.08032,-0.296748 -0.214844,-0.324219 l -0.134765,-0.02734 -6.447266,-1.316407 c 0.05326,-0.233613 0.106874,-0.467631 0.160157,-0.701171 l 0.101562,-0.166016 c 2.839606,-1.682625 5.812834,-3.397477 8.652344,-5.080078 l 0.132812,-0.0332 c 0.13339,-0.03257 0.10091,-0.165544 0.06836,-0.298828 -0.165951,-0.100812 -0.198651,-0.233742 -0.332032,-0.201172 z"
     id="path2029"
     inkscape:connector-curvature="0"
     sodipodi:nodetypes="cccccsccccccccccccccccc" />
</svg>
