<?xml version="1.0" encoding="UTF-8" standalone="no"?>
<svg
   xmlns:dc="http://purl.org/dc/elements/1.1/"
   xmlns:cc="http://creativecommons.org/ns#"
   xmlns:rdf="http://www.w3.org/1999/02/22-rdf-syntax-ns#"
   xmlns:svg="http://www.w3.org/2000/svg"
   xmlns="http://www.w3.org/2000/svg"
   xmlns:sodipodi="http://sodipodi.sourceforge.net/DTD/sodipodi-0.dtd"
   xmlns:inkscape="http://www.inkscape.org/namespaces/inkscape"
   width="60"
   height="60"
   viewBox="0 0 60 60"
   fill="none"
   version="1.1"
   id="svg989"
   sodipodi:docname="icon06.svg"
   inkscape:version="0.92.5 (2060ec1f9f, 2020-04-08)">
  <metadata
     id="metadata993">
    <rdf:RDF>
      <cc:Work
         rdf:about="">
        <dc:format>image/svg+xml</dc:format>
        <dc:type
           rdf:resource="http://purl.org/dc/dcmitype/StillImage" />
      </cc:Work>
    </rdf:RDF>
  </metadata>
  <sodipodi:namedview
     pagecolor="#ffffff"
     bordercolor="#666666"
     borderopacity="1"
     objecttolerance="10"
     gridtolerance="10"
     guidetolerance="10"
     inkscape:pageopacity="0"
     inkscape:pageshadow="2"
     inkscape:window-width="1366"
     inkscape:window-height="717"
     id="namedview991"
     showgrid="false"
     inkscape:zoom="4.2175781"
     inkscape:cx="71.036546"
     inkscape:cy="14.696325"
     inkscape:window-x="0"
     inkscape:window-y="0"
     inkscape:window-maximized="1"
     inkscape:current-layer="svg989" />
  <circle
     cx="30"
     cy="30"
     r="30"
     id="circle966"
     fill="#FCF0F3" />
  <g
     clip-path="url(#clip0)"
     id="g982">
    <path
       d="m 33.658,31.8688 c 0,0 -1.7467,0.9316 -1.5138,2.4454 0.4658,2.9113 4.5415,2.4455 6.0554,3.4935 0.8151,-1.8632 0.6987,-4.0757 -0.4658,-5.8225 -1.0481,-1.5138 -2.5619,-1.5138 -4.0758,-0.1164 z"
       id="path968"
       inkscape:connector-curvature="0"
       style="stroke:#ff5555;stroke-width:1.70000005;stroke-linecap:round;stroke-linejoin:round" />
    <path
       d="M 33.5416,31.9853 C 32.2606,31.0537 30.6303,30.5879 29,30.4714"
       id="path970"
       inkscape:connector-curvature="0"
       style="stroke:#ff5555;stroke-width:1.70000005;stroke-linecap:round;stroke-linejoin:round" />
    <path
       d="m 24.342,24.8818 c 0,0 1.7468,0.9316 1.5139,2.4454 -0.4658,2.9113 -4.5416,2.4455 -6.0555,3.4935 -0.8151,-1.8632 -0.6987,-4.0757 0.4658,-5.8225 1.0481,-1.5138 2.5619,-1.5138 4.0758,-0.1164 z"
       id="path972"
       inkscape:connector-curvature="0"
       style="stroke:#ff5555;stroke-width:1.70000005;stroke-linecap:round;stroke-linejoin:round" />
    <path
       d="M 24.4585,24.9983 C 25.7394,24.0667 27.3697,23.6009 29,23.4844"
       id="path974"
       inkscape:connector-curvature="0"
       style="stroke:#ff5555;stroke-width:1.70000005;stroke-linecap:round;stroke-linejoin:round" />
    <path
       d="m 36.9186,20.1074 c -1.3974,0 -2.5619,1.1645 -2.5619,2.5619 v 4.1922 c 1.6303,-1.0481 3.61,-1.0481 5.2403,0 v -4.1922 c -0.01125,-1.762622 -1.30881,-2.591999 -2.6784,-2.5619 z"
       id="path976"
       inkscape:connector-curvature="0"
       style="stroke:#ff5555;stroke-width:1.70000005;stroke-linecap:round;stroke-linejoin:round"
       sodipodi:nodetypes="cscccc" />
    <path
       d="M 17.232028,41.0684 H 42.1589"
       id="path978"
       inkscape:connector-curvature="0"
       style="stroke:#ff5555;stroke-width:1.70000005;stroke-linecap:round;stroke-linejoin:round;stroke-miterlimit:4;stroke-dasharray:none"
       sodipodi:nodetypes="cc" />
    <path
       d="M 29,40.6366 V 19.758 c 0,-2.0961 1.7468,-3.7264 3.9593,-3.7264 2.2126,0 3.9593,1.7468 3.9593,3.7264 v 0.4658"
       id="path980"
       inkscape:connector-curvature="0"
       style="stroke:#ff5555;stroke-width:1.70000005;stroke-linecap:round;stroke-linejoin:round"
       sodipodi:nodetypes="csssc" />
  </g>
  <defs
     id="defs987">
    <clipPath
       id="clip0">
      <rect
         width="27.9481"
         height="26.9"
         fill="white"
         transform="translate(16.026 15.1)"
         id="rect984" />
    </clipPath>
  </defs>
</svg>
