<?xml version="1.0" encoding="UTF-8" standalone="no"?>
<svg
   xmlns:dc="http://purl.org/dc/elements/1.1/"
   xmlns:cc="http://creativecommons.org/ns#"
   xmlns:rdf="http://www.w3.org/1999/02/22-rdf-syntax-ns#"
   xmlns:svg="http://www.w3.org/2000/svg"
   xmlns="http://www.w3.org/2000/svg"
   xmlns:sodipodi="http://sodipodi.sourceforge.net/DTD/sodipodi-0.dtd"
   xmlns:inkscape="http://www.inkscape.org/namespaces/inkscape"
   width="60"
   height="60"
   viewBox="0 0 60 60"
   fill="none"
   version="1.1"
   id="svg1110"
   sodipodi:docname="icon02.svg"
   inkscape:version="0.92.5 (2060ec1f9f, 2020-04-08)">
  <metadata
     id="metadata1114">
    <rdf:RDF>
      <cc:Work
         rdf:about="">
        <dc:format>image/svg+xml</dc:format>
        <dc:type
           rdf:resource="http://purl.org/dc/dcmitype/StillImage" />
      </cc:Work>
    </rdf:RDF>
  </metadata>
  <sodipodi:namedview
     pagecolor="#ffffff"
     bordercolor="#666666"
     borderopacity="1"
     objecttolerance="10"
     gridtolerance="10"
     guidetolerance="10"
     inkscape:pageopacity="0"
     inkscape:pageshadow="2"
     inkscape:window-width="1366"
     inkscape:window-height="717"
     id="namedview1112"
     showgrid="false"
     inkscape:zoom="8.8166667"
     inkscape:cx="23.732536"
     inkscape:cy="32.763043"
     inkscape:window-x="0"
     inkscape:window-y="0"
     inkscape:window-maximized="1"
     inkscape:current-layer="svg1110" />
  <circle
     cx="30"
     cy="30"
     r="30"
     fill="#FCF0F3"
     id="circle1083" />
  <g
     clip-path="url(#clip0)"
     id="g1103">
    <path
       style="fill:#ff5555"
       d="m 21.376953,15.675781 c -0.1352,0 -0.134331,-4.34e-4 -0.269531,0.134766 0,0 -0.134766,0.136184 -0.134766,0.271484 0,0 -0.0014,1.351275 0.404297,3.109375 0.466641,1.932394 1.142252,3.621405 2.435547,5.003906 0.8114,0.8114 1.757944,1.216797 2.839844,1.216797 0.903494,0 1.803907,-0.372972 2.589844,-0.876953 l 2.818359,2.771485 v 10.548828 7.978515 h 3.787109 l -2.9375,-18.5625 2.060547,-1.966796 c 0.406483,0.310009 0.956282,0.513671 1.417969,0.513671 1.575829,-0.116764 2.042849,-1.112296 2.640625,-2.304687 0.502677,-1.143016 0.772473,-2.311827 0.875,-3.644531 v -0.136719 h -0.134766 c 0,0 -0.810778,9.84e-4 -1.892578,0.271484 -0.841684,0.139192 -1.642122,0.414805 -2.351797,0.790314 -1.076466,0.448193 -1.615991,1.512041 -1.570078,2.319061 0,0.572359 0.101065,1.154796 0.406616,1.533344 l -1.900756,1.970563 -2.541016,-2.583985 c 0.657848,-0.674422 0.923828,-1.609216 0.923828,-2.677734 -0.173979,-2.014596 -1.278309,-3.068888 -2.705078,-4.056641 -1.218821,-0.672248 -2.517496,-1.041641 -3.785156,-1.351562 -1.6228,-0.2704 -2.976563,-0.271485 -2.976563,-0.271485 z"
       id="path1085"
       inkscape:connector-curvature="0"
       sodipodi:nodetypes="cccccscccccccccccccccccccccc" />
    <path
       d="m 21.1075,39.6126 c -0.4057,0.6762 -0.6762,1.6228 -0.6762,2.1637 v 0.541 l -4.4627,-7.5731 c -0.198501,-0.713501 -0.08777,-1.209621 0.1352,-1.8933 l 2.1638,-3.7866 -2.4343,-1.2171 7.7084,-0.1352 3.7865,6.7617 -2.4342,-1.3523 z"
       id="path1093"
       inkscape:connector-curvature="0"
       style="fill:#ff5555"
       sodipodi:nodetypes="csccccccccc" />
    <path
       d="m 25.0293,45.8333 c -2.0286,0 -3.6514,-1.6228 -3.6514,-3.6513 0.137472,-1.623124 0.857309,-2.844685 1.7581,-4.1922 h 7.9788 v 7.8435 z"
       id="path1095"
       inkscape:connector-curvature="0"
       style="fill:#ff5555"
       sodipodi:nodetypes="sccccs" />
    <path
       d="m 35.4423,37.9898 1.3523,7.8435 h 7.1674 l -3.7865,-7.8435 z"
       id="path1097"
       inkscape:connector-curvature="0"
       style="fill:#ff5555" />
    <path
       d="M 21.523862,16.252964 28.5453,23.3845"
       stroke-miterlimit="10"
       id="path1099"
       inkscape:connector-curvature="0"
       style="stroke:#ffffff;stroke-width:0.59016103;stroke-linecap:round;stroke-miterlimit:10"
       sodipodi:nodetypes="cc" />
    <path
       d="M 39.238528,20.496499 36.5241,23.2492"
       stroke-miterlimit="10"
       id="path1101"
       inkscape:connector-curvature="0"
       style="stroke:#ffffff;stroke-width:0.59016103;stroke-linecap:round;stroke-miterlimit:10"
       sodipodi:nodetypes="cc" />
  </g>
  <defs
     id="defs1108">
    <clipPath
       id="clip0">
      <rect
         width="29.0753"
         height="30.8333"
         fill="white"
         transform="translate(15.8333 15)"
         id="rect1105" />
    </clipPath>
  </defs>
</svg>
