<?xml version="1.0" encoding="UTF-8" standalone="no"?>
<svg
   xmlns:dc="http://purl.org/dc/elements/1.1/"
   xmlns:cc="http://creativecommons.org/ns#"
   xmlns:rdf="http://www.w3.org/1999/02/22-rdf-syntax-ns#"
   xmlns:svg="http://www.w3.org/2000/svg"
   xmlns="http://www.w3.org/2000/svg"
   xmlns:sodipodi="http://sodipodi.sourceforge.net/DTD/sodipodi-0.dtd"
   xmlns:inkscape="http://www.inkscape.org/namespaces/inkscape"
   width="60"
   height="60"
   viewBox="0 0 60 60"
   fill="none"
   version="1.1"
   id="svg2153"
   sodipodi:docname="icon10.svg"
   inkscape:version="0.92.5 (2060ec1f9f, 2020-04-08)">
  <metadata
     id="metadata2157">
    <rdf:RDF>
      <cc:Work
         rdf:about="">
        <dc:format>image/svg+xml</dc:format>
        <dc:type
           rdf:resource="http://purl.org/dc/dcmitype/StillImage" />
      </cc:Work>
    </rdf:RDF>
  </metadata>
  <sodipodi:namedview
     pagecolor="#ffffff"
     bordercolor="#666666"
     borderopacity="1"
     objecttolerance="10"
     gridtolerance="10"
     guidetolerance="10"
     inkscape:pageopacity="0"
     inkscape:pageshadow="2"
     inkscape:window-width="640"
     inkscape:window-height="480"
     id="namedview2155"
     showgrid="false"
     inkscape:zoom="7.5341994"
     inkscape:cx="19.691622"
     inkscape:cy="19.267582"
     inkscape:current-layer="svg2153" />
  <circle
     opacity="0.7"
     cx="30"
     cy="30"
     r="30"
     fill="#C5D5D4"
     id="circle2134"
     style="fill:#fcf0f3;fill-opacity:1" />
  <g
     clip-path="url(#clip0)"
     id="g2146">
    <path
       d="M 41.8083,19.4084 C 41.4833,19.0834 41.05,18.8667 40.6167,18.8667 H 19.4916 c -0.4333,0 -0.975,0.2167 -1.1916,0.5417 -0.4334,0.325 -0.5417,0.8666 -0.4334,1.3 l 3.6834,21.125 c 0.1083,0.7583 0.7583,1.3 1.625,1.3 h 13.7583 c 0.7584,0 1.5167,-0.5417 1.625,-1.3 l 3.6834,-21.125 c 0,-0.4334 -0.1084,-0.975 -0.4334,-1.3 z"
       id="path2136"
       inkscape:connector-curvature="0"
       style="stroke:#ff5555;stroke-width:1.70000005;stroke-linecap:round;stroke-linejoin:round" />
    <path
       d="m 27.9416,32.625 h -4.0083 v 4.1167"
       id="path2138"
       inkscape:connector-curvature="0"
       style="stroke:#ff5555;stroke-width:1.70000005;stroke-linecap:round;stroke-linejoin:round" />
    <path
       d="m 36.2833,33.3833 c -0.8667,2.6 -3.3583,4.225 -6.175,4.1167 C 27.4,37.2833 25.125,35.3333 24.5833,32.625"
       id="path2140"
       inkscape:connector-curvature="0"
       style="stroke:#ff5555;stroke-width:1.70000005;stroke-linecap:round;stroke-linejoin:round" />
    <path
       d="m 32.8167,29.375 h 4.1166 v -4.0083"
       id="path2142"
       inkscape:connector-curvature="0"
       style="stroke:#ff5555;stroke-width:1.70000005;stroke-linecap:round;stroke-linejoin:round" />
    <path
       d="m 24.5833,28.6168 c 0.8667,-2.6 3.3583,-4.225 6.175,-4.1167 2.7083,0.2167 4.9833,2.1667 5.525,4.875"
       id="path2144"
       inkscape:connector-curvature="0"
       style="stroke:#ff5555;stroke-width:1.70000005;stroke-linecap:round;stroke-linejoin:round" />
  </g>
  <defs
     id="defs2151">
    <clipPath
       id="clip0">
      <rect
         width="26"
         height="26"
         fill="white"
         transform="translate(17 18)"
         id="rect2148" />
    </clipPath>
  </defs>
</svg>
