<?xml version="1.0" encoding="UTF-8" standalone="no"?>
<svg
   xmlns:dc="http://purl.org/dc/elements/1.1/"
   xmlns:cc="http://creativecommons.org/ns#"
   xmlns:rdf="http://www.w3.org/1999/02/22-rdf-syntax-ns#"
   xmlns:svg="http://www.w3.org/2000/svg"
   xmlns="http://www.w3.org/2000/svg"
   xmlns:sodipodi="http://sodipodi.sourceforge.net/DTD/sodipodi-0.dtd"
   xmlns:inkscape="http://www.inkscape.org/namespaces/inkscape"
   id="Capa_1"
   data-name="Capa 1"
   viewBox="0 0 167.89658 160.92599"
   version="1.1"
   sodipodi:docname="logo_1.svg"
   inkscape:version="0.92.5 (2060ec1f9f, 2020-04-08)"
   width="167.89659"
   height="160.92598">
  <metadata
     id="metadata1080">
    <rdf:RDF>
      <cc:Work
         rdf:about="">
        <dc:format>image/svg+xml</dc:format>
        <dc:type
           rdf:resource="http://purl.org/dc/dcmitype/StillImage" />
        <dc:title />
      </cc:Work>
    </rdf:RDF>
  </metadata>
  <sodipodi:namedview
     pagecolor="#ffffff"
     bordercolor="#666666"
     borderopacity="1"
     objecttolerance="10"
     gridtolerance="10"
     guidetolerance="10"
     inkscape:pageopacity="0"
     inkscape:pageshadow="2"
     inkscape:window-width="640"
     inkscape:window-height="480"
     id="namedview1078"
     showgrid="false"
     inkscape:zoom="1.8376355"
     inkscape:cx="156.54961"
     inkscape:cy="66.898645"
     inkscape:current-layer="Capa_1"
     fit-margin-top="0"
     fit-margin-left="0"
     fit-margin-right="0"
     fit-margin-bottom="-0.7" />
  <defs
     id="defs1017">
    <style
       id="style1015">.cls-1{fill:#484f50;}.cls-2{fill:#fff;}.cls-3{fill:#585a5c;}.cls-4{fill:#ffcd00;}.cls-5{fill:#6e368c;}.cls-6{fill:#b2b2b2;}</style>
  </defs>
  <g
     id="g897">
    <path
       inkscape:connector-curvature="0"
       style="fill:#cccccc"
       id="path1057"
       d="m 81.94988,144.01391 a 1.83,1.83 0 0 0 0.5,3.58 h 0.11 a 62,62 0 0 0 50.76,-24.61 6.11,6.11 0 0 0 1.23,-3.53 v 0 a 61.9,61.9 0 0 0 -10.08,-35.159996 c 0,0.66 0,1.32 0,2 a 62.16,62.16 0 0 1 -42.52,57.759996"
       class="cls-4" />
    <path
       inkscape:connector-curvature="0"
       style="fill:#cccccc"
       id="path1059"
       d="m 138.46988,105.33391 a 1.84,1.84 0 0 0 3.57,0.63 v -0.1 a 62,62 0 0 0 -7.73,-55.879996 6,6 0 0 0 -3,-2.27 v 0 a 61.86,61.86 0 0 0 -36.56,-1.28 c 0.63,0.2 1.26,0.39 1.89,0.61 a 62.15,62.15 0 0 1 41.83,58.289996"
       class="cls-5" />
    <path
       inkscape:connector-curvature="0"
       style="fill:#cccccc"
       id="path1061"
       d="m 119.19988,39.673914 a 1.83,1.83 0 0 0 1.69,-3.19 l -0.08,-0.07 a 62.08,62.08 0 0 0 -55.54,-9.92 6.05,6.05 0 0 0 -3.07,2.14 v 0 a 61.86,61.86 0 0 0 -12.48,34.39 c 0.38,-0.54 0.76,-1.08 1.16,-1.62 a 62.16,62.16 0 0 1 68.36,-21.73"
       class="cls-4" />
    <path
       inkscape:connector-curvature="0"
       style="fill:#cccccc"
       id="path1063"
       d="m 50.71988,37.703914 a 1.84,1.84 0 0 0 -2.52,-2.6 l -0.09,0.07 a 62,62 0 0 0 -26.59,49.74 6,6 0 0 0 1.08,3.58 v 0 a 61.83,61.83 0 0 0 28.83,22.529996 c -0.4,-0.54 -0.8,-1.06 -1.18,-1.61 a 62.16,62.16 0 0 1 0.46,-71.729996"
       class="cls-6" />
    <path
       inkscape:connector-curvature="0"
       style="fill:#cccccc"
       id="path1065"
       d="m 27.71988,102.19391 a 1.83,1.83 0 0 0 -3.25,1.58 c 0,0 0,0.07 0,0.11 a 62,62 0 0 0 39.09,40.66 6.05,6.05 0 0 0 3.74,0.08 v 0 a 61.89,61.89 0 0 0 30.42,-20.46 c -0.63,0.21 -1.25,0.43 -1.89,0.62 a 62.17,62.17 0 0 1 -68.11,-22.59"
       class="cls-3" />
    <path
       inkscape:connector-curvature="0"
       style="fill:#cccccc"
       id="path1067"
       d="m 28.53988,150.24391 a 10.48,10.48 0 1 1 10.27,10.68 10.48,10.48 0 0 1 -10.27,-10.68"
       class="cls-3" />
    <path
       inkscape:connector-curvature="0"
       style="fill:#cccccc"
       id="path1069"
       d="m 126.37988,159.86391 a 10.48,10.48 0 1 1 13.34,-6.47 10.48,10.48 0 0 1 -13.34,6.47"
       class="cls-4" />
    <path
       inkscape:connector-curvature="0"
       style="fill:#cccccc"
       id="path1071"
       d="m 165.76988,69.783914 a 10.48,10.48 0 1 1 -2,-14.68 10.5,10.5 0 0 1 2,14.68"
       class="cls-5" />
    <path
       inkscape:connector-curvature="0"
       style="fill:#cccccc"
       id="path1073"
       d="m 92.25988,4.4839139 a 10.48,10.48 0 1 1 -14.54,-2.6 10.48,10.48 0 0 1 14.59,2.6"
       class="cls-4" />
    <path
       inkscape:connector-curvature="0"
       style="fill:#cccccc"
       id="path1075"
       d="m 7.4498802,54.213914 a 10.48,10.48 0 1 1 -6.99999998,13.07 10.48,10.48 0 0 1 6.99999998,-13.07"
       class="cls-6" />
    <g
       transform="translate(0.00988022,-0.00608606)"
       id="text1084"
       style="font-style:normal;font-variant:normal;font-weight:normal;font-stretch:normal;font-size:73.15467072px;line-height:125%;font-family:Dyuthi;-inkscape-font-specification:'Dyuthi, Normal';font-variant-ligatures:normal;font-variant-caps:normal;font-variant-numeric:normal;font-feature-settings:normal;text-align:start;letter-spacing:0px;word-spacing:0px;writing-mode:lr-tb;text-anchor:start;fill:#cccccc;fill-opacity:1;stroke:none;stroke-width:1.828879px;stroke-linecap:butt;stroke-linejoin:miter;stroke-opacity:1"
       aria-label="H">
      <path
         inkscape:connector-curvature="0"
         id="path1089"
         style="font-style:normal;font-variant:normal;font-weight:normal;font-stretch:normal;font-size:73.15467072px;font-family:Dyuthi;-inkscape-font-specification:'Dyuthi, Normal';font-variant-ligatures:normal;font-variant-caps:normal;font-variant-numeric:normal;font-feature-settings:normal;text-align:start;writing-mode:lr-tb;text-anchor:start;fill:#cccccc;stroke-width:1.828879px"
         d="M 75.096042,79.560526 H 90.098465 V 68.415869 q 0,-2.214643 1.535962,-3.786326 1.500242,-1.571682 3.750606,-1.571682 h 0.07144 q 2.214643,0 3.750605,1.571682 1.571682,1.571683 1.571682,3.786326 V 103.0286 q 0,2.21464 -1.571682,3.78633 -1.571682,1.53596 -3.750605,1.53596 h -0.07144 q -2.250364,0 -3.786326,-1.53596 -1.500242,-1.57169 -1.500242,-3.78633 V 88.347659 H 75.096042 V 103.0286 q 0,2.21464 -1.571682,3.78633 -1.535963,1.53596 -3.786326,1.53596 h -0.10716 q -2.214644,0 -3.750606,-1.53596 -1.535962,-1.57169 -1.535962,-3.78633 V 68.415869 q 0,-2.214643 1.535962,-3.786326 1.535962,-1.571682 3.750606,-1.571682 h 0.10716 q 2.214643,0 3.786326,1.571682 1.571682,1.571683 1.571682,3.786326 z" />
    </g>
  </g>
</svg>
