<?xml version="1.0" encoding="UTF-8" standalone="no"?>
<!-- Created with Inkscape (http://www.inkscape.org/) -->

<svg
   xmlns:dc="http://purl.org/dc/elements/1.1/"
   xmlns:cc="http://creativecommons.org/ns#"
   xmlns:rdf="http://www.w3.org/1999/02/22-rdf-syntax-ns#"
   xmlns:svg="http://www.w3.org/2000/svg"
   xmlns="http://www.w3.org/2000/svg"
   xmlns:sodipodi="http://sodipodi.sourceforge.net/DTD/sodipodi-0.dtd"
   xmlns:inkscape="http://www.inkscape.org/namespaces/inkscape"
   width="172.14525mm"
   height="182.66583mm"
   viewBox="0 0 172.14525 182.66583"
   version="1.1"
   id="svg8"
   inkscape:export-filename="/home/artur/Pictures/logo-vix-black-no-transparency.png"
   inkscape:export-xdpi="125.93102"
   inkscape:export-ydpi="125.93102"
   inkscape:version="0.92.5 (2060ec1f9f, 2020-04-08)"
   sodipodi:docname="logo_2.svg">
  <defs
     id="defs2" />
  <sodipodi:namedview
     id="base"
     pagecolor="#ffffff"
     bordercolor="#666666"
     borderopacity="1.0"
     inkscape:pageopacity="0.0"
     inkscape:pageshadow="2"
     inkscape:zoom="0.61586538"
     inkscape:cx="167.85589"
     inkscape:cy="190.59191"
     inkscape:document-units="mm"
     inkscape:current-layer="layer1"
     showgrid="false"
     fit-margin-top="0"
     fit-margin-left="0"
     fit-margin-right="0"
     fit-margin-bottom="0"
     inkscape:window-width="1366"
     inkscape:window-height="703"
     inkscape:window-x="0"
     inkscape:window-y="0"
     inkscape:window-maximized="1"
     inkscape:snap-page="true" />
  <metadata
     id="metadata5">
    <rdf:RDF>
      <cc:Work
         rdf:about="">
        <dc:format>image/svg+xml</dc:format>
        <dc:type
           rdf:resource="http://purl.org/dc/dcmitype/StillImage" />
        <dc:title />
      </cc:Work>
    </rdf:RDF>
  </metadata>
  <g
     inkscape:label="Layer 1"
     inkscape:groupmode="layer"
     id="layer1"
     transform="translate(190.84147,-113.58493)">
    <path
       style="fill:#cccccc;fill-opacity:1;stroke-width:0.16933332"
       d="m -182.24475,135.67815 c 3.36154,-1.25662 7.45189,-0.33803 9.99976,2.24575 0.91181,0.92465 1.88121,2.61578 2.23778,3.90372 0.47343,1.71033 0.44231,3.07178 -0.1247,5.45482 -2.17662,9.14798 -2.69297,16.9551 -1.67875,25.38226 2.43433,20.22705 13.60212,38.27398 30.60765,49.46143 12.39038,8.15127 26.91348,12.04273 41.7195,11.17871 25.484738,-1.48719 48.071367,-16.9066 58.671196,-40.05358 1.349213,-2.94629 2.437396,-5.86087 3.572411,-9.56828 0.570585,-1.86376 1.124634,-3.2913 1.499724,-3.86416 2.222587,-3.39447 6.127343,-4.91973 10.07594,-3.93582 3.988598,0.99387 6.701128,4.27221 6.946951,8.39597 0.07559,1.26804 -0.02966,1.91781 -0.69149,4.26946 -2.669378,9.48484 -6.789536,18.17186 -12.399442,26.14322 -9.539083,13.55448 -22.504876,23.97625 -37.938603,30.49464 -15.616797,6.59572 -33.073937,8.45372 -49.828767,5.30339 -3.37487,-0.63457 -9.57958,-2.29711 -12.81958,-3.43501 -15.45729,-5.42858 -29.18698,-15.1987 -39.36514,-28.01238 -3.50213,-4.40898 -7.7638,-11.13902 -10.07057,-15.9035 -7.39657,-15.2772 -10.25912,-31.36915 -8.51471,-47.86605 0.48143,-4.55281 1.90847,-11.80284 2.80463,-14.24883 0.84664,-2.3108 3.00485,-4.48918 5.29621,-5.34575 z m 56.84976,-17.18799 c 0.25826,-0.11147 1.13753,-0.49354 1.95393,-0.84902 11.60212,-5.05159 25.332248,-5.40138 37.528776,-0.95614 4.952251,1.80493 10.606256,4.99418 14.698606,8.29101 4.355992,3.50922 8.023016,7.72468 11.183837,12.85642 3.839668,6.2339 5.969086,12.04088 7.067556,19.27338 1.433577,9.43885 -0.0596,19.89505 -4.106837,28.75889 -3.597126,7.87808 -9.170578,14.68132 -16.459061,20.09075 -2.021011,1.49999 -7.135229,4.39976 -9.639422,5.46556 -5.492859,2.33786 -10.789079,3.61275 -16.6628,4.01098 -7.104025,0.48166 -13.578535,-0.36078 -20.123285,-2.61836 -16.41621,-5.66273 -28.60221,-18.85661 -32.93456,-35.65856 -1.36764,-5.30407 -1.87115,-11.8469 -1.33266,-17.31706 0.30305,-3.07841 0.84473,-5.82735 1.84968,-9.3868 3.15526,-11.17569 9.90008,-20.70393 19.52076,-27.57647 1.38404,-0.9887 6.33822,-3.90228 7.45544,-4.38465 z m 3.51069,19.35601 c -8.25115,5.79015 -13.3274,14.8032 -13.95117,24.77081 -0.77708,12.4175 5.81708,24.43304 16.65565,30.34905 14.89792,8.13173 33.306089,3.72505 42.624155,-10.20367 3.329907,-4.97757 5.113588,-10.18261 5.509934,-16.07877 0.877286,-13.05138 -6.085031,-25.21723 -17.797844,-31.09963 -4.174183,-2.09636 -9.112502,-3.35816 -13.582715,-3.47054 -7.05155,-0.17726 -13.91953,1.84619 -19.45801,5.73275 z m 13.87696,12.7923 c 2.84941,-0.87895 5.8304,-0.90017 8.6958,-0.0619 4.027956,1.17838 6.908672,3.57529 8.861952,7.37361 1.062642,2.06637 1.397692,3.20657 1.58925,5.40824 0.391697,4.50234 -1.315696,8.87243 -4.699724,12.02898 -1.278832,1.19286 -3.925646,2.72222 -5.5187,3.18853 -5.347378,1.56596 -10.925008,0.13614 -14.882428,-3.81506 -1.31322,-1.31116 -2.95421,-4.09299 -3.45865,-5.86313 -1.51932,-5.33152 -0.15637,-10.84268 3.63868,-14.71317 1.01002,-1.0301 4.4336,-3.13291 5.77371,-3.54629 z"
       id="path21"
       inkscape:connector-curvature="0"
       sodipodi:nodetypes="cscsssssscsccssccscsccccccccssccccccscccsssscscsccccccccscc"
       inkscape:transform-center-x="1.0071093"
       inkscape:transform-center-y="18.423923" />
    <path
       style="font-style:normal;font-variant:normal;font-weight:normal;font-stretch:normal;font-size:61.56603622px;line-height:125%;font-family:Dyuthi;-inkscape-font-specification:'Dyuthi, Normal';font-variant-ligatures:normal;font-variant-caps:normal;font-variant-numeric:normal;font-feature-settings:normal;text-align:start;letter-spacing:0px;word-spacing:0px;writing-mode:lr-tb;text-anchor:start;fill:#cccccc;fill-opacity:1;stroke:none;stroke-width:5.81716871px;stroke-linecap:butt;stroke-linejoin:miter;stroke-opacity:1"
       d="m 190.8457,543.02734 c -1.06043,0.0757 -2.68813,0.22781 -4.88476,0.45508 -18.40618,1.74214 -34.19917,9.12799 -47.37891,22.15625 -13.17974,13.02823 -19.76953,29.95705 -19.76953,50.78711 0,20.90578 5.87075,37.56991 17.61133,49.99219 11.74057,12.4223 28.2526,19.65604 49.53711,21.70117 1.43917,0.37881 2.38537,0.52897 2.83984,0.45313 h 1.02344 1.93164 c 0.22722,0.0756 0.56701,0.0381 1.02148,-0.11329 0.45448,-0.15143 1.40263,-0.264 2.8418,-0.33984 20.67855,-1.21194 37.03847,-8.29555 49.08203,-21.24805 12.11928,-13.02825 18.17969,-29.84252 18.17969,-50.44531 0,-20.60281 -6.40016,-37.30641 -19.20117,-50.10742 -12.80101,-12.80101 -28.82117,-20.41208 -48.06055,-22.83594 -2.04513,-0.22715 -3.63726,-0.37923 -4.77344,-0.45508 z m 159.02344,0.043 c -1.05097,-0.0284 -2.39941,0.0716 -4.04687,0.29883 -21.20879,1.89364 -38.59194,9.35455 -52.15039,22.38281 -13.55848,12.95249 -20.3379,29.8043 -20.3379,50.5586 0,20.75431 6.2856,37.64559 18.85938,50.67383 12.49802,12.95249 30.375,19.99661 53.62891,21.13281 1.36341,0.22727 2.49925,0.34179 3.4082,0.34179 h 3.29492 c 0.8332,0.0757 1.9315,-0.0369 3.29492,-0.33984 7.34733,-0.30299 14.20183,-1.28868 20.56446,-2.95508 6.43838,-1.59065 9.69574,-5.71914 9.77148,-12.38476 0.0757,-6.58986 -3.06706,-10.86851 -9.42969,-12.83789 h -0.34179 c -3.02983,-0.90895 -6.6645,-0.4546 -10.90625,1.36328 -4.24176,1.8179 -9.12878,2.72656 -14.65821,2.72656 -11.89206,0 -22.00392,-4.69739 -30.33593,-14.08984 -8.25628,-9.39246 -12.38282,-20.71522 -12.38282,-33.97071 0.0757,-13.25548 4.24177,-24.73033 12.49805,-34.42578 8.25628,-9.39245 18.32864,-14.08984 30.2207,-14.08984 5.52943,-0.0757 10.37891,0.87046 14.54492,2.83984 4.77198,2.19661 8.52121,2.6134 11.24805,1.25 5.75668,-1.96938 8.70985,-5.9833 8.86133,-12.04297 0,-6.36263 -2.91564,-10.37657 -8.74805,-12.04297 -6.58987,-2.19661 -12.27099,-3.48454 -17.04297,-3.86328 -4.77197,-0.45442 -7.72709,-0.60651 -8.86328,-0.45508 -0.28404,-0.0379 -0.60085,-0.0608 -0.95117,-0.0703 z m 247.61719,0.75196 c -16.20956,-0.15149 -29.27459,3.78738 -39.19727,11.8164 -9.92267,7.65032 -14.88476,17.98935 -14.88476,31.01758 0,19.0879 13.14205,33.32825 39.42578,42.7207 8.55925,3.10557 14.58015,6.02315 18.06445,8.75 3.40855,2.72686 5.11328,6.24893 5.11328,10.56641 0,4.24176 -1.93189,7.6868 -5.79492,10.33789 -3.86303,2.65111 -8.82316,3.97656 -14.88281,3.97656 -6.1354,0 -13.74842,-1.43807 -22.83789,-4.3164 -3.86303,-1.28769 -7.53719,-0.94791 -11.02149,1.02148 -3.40855,1.89364 -5.60515,4.77174 -6.58984,8.63477 l -0.22656,0.45507 c -0.83321,3.56004 -0.26431,7.00704 1.70508,10.33985 1.89364,3.33279 4.58211,5.41484 8.0664,6.24804 11.13461,3.33282 20.4504,5 27.94922,5 19.61811,0 34.53997,-4.69543 44.76562,-14.08789 8.55926,-8.02905 12.83985,-18.14286 12.83985,-30.33789 0,-19.31515 -11.51435,-33.28884 -34.54102,-41.92382 -11.21035,-4.24177 -18.67128,-7.57419 -22.38281,-9.99805 -3.78728,-2.42386 -5.67969,-5.56861 -5.67969,-9.43164 0,-3.86301 1.66524,-7.12037 4.99805,-9.77149 6.21114,-4.92346 16.85436,-5.26324 31.92773,-1.02148 3.63579,0.98469 7.00576,0.53036 10.11133,-1.36328 3.02983,-1.8179 5.11382,-4.46883 6.25,-7.95313 l 0.22656,-0.22851 c 0.90895,-3.56004 0.37955,-7.04457 -1.58984,-10.45313 -1.96938,-3.40855 -4.73488,-5.52812 -8.29492,-6.36133 -9.84693,-2.42386 -17.68712,-3.63671 -23.51953,-3.63671 z m -175.53906,0.11328 c -6.05965,0.0757 -10.7195,1.74293 -13.97657,5 -3.25706,3.1813 -4.88476,7.12016 -4.88476,11.8164 v 64.53516 c 0,17.27 6.0209,31.92716 18.06445,43.9707 12.1193,12.11931 26.77645,18.17774 43.9707,18.17774 h 1.25 c 16.73978,0.0757 30.9426,-5.8306 42.60743,-17.72266 11.66482,-11.89206 17.49609,-26.1719 17.49609,-42.83594 v -66.125 c 0.0757,-4.69624 -1.51442,-8.67264 -4.77149,-11.92968 -3.25706,-3.25708 -7.87742,-4.88672 -13.86132,-4.88672 h -0.45508 c -4.69623,0.0757 -8.71016,1.74293 -12.04297,5 -3.25706,3.33281 -4.84723,7.27167 -4.77148,11.8164 l 0.68164,69.875 c 0.0757,7.27159 -2.61273,13.63421 -8.06641,19.08789 -5.45368,5.37794 -11.36198,8.06641 -17.72461,8.06641 h -0.79687 c -6.43838,0 -12.45928,-2.72601 -18.06446,-8.17969 -5.60517,-5.37794 -8.37066,-11.89265 -8.29492,-19.54297 l 0.68164,-69.30664 c 0.0758,-4.54473 -1.51442,-8.48359 -4.77148,-11.8164 -3.25706,-3.33282 -7.19593,-5 -11.81641,-5 z m -390.16602,0.68164 c -5.756674,0 -10.718769,2.08398 -14.884766,6.25 -4.166022,4.16599 -6.248046,9.12809 -6.248046,14.88476 v 105.55078 c 0,4.69624 1.665234,8.71019 4.998046,12.04297 3.257071,3.33282 7.195934,5 11.816407,5 h 0.226562 c 4.771981,0 8.787851,-1.66718 12.044922,-5 3.257046,-3.33278 4.884766,-7.34673 4.884766,-12.04297 v -46.4707 l 44.425781,2.04492 c 3.105562,0.15149 6.021218,-1.05942 8.748047,-3.63476 2.726851,-2.57535 4.089841,-5.64306 4.089841,-9.20313 v -0.22656 c -0.0757,-3.40855 -1.40122,-6.43876 -3.97656,-9.08984 -2.57537,-2.65104 -5.528541,-3.90144 -8.861328,-3.75 l -44.425781,2.04492 v -32.94922 l 43.970703,2.04492 c 2.726853,0.15151 5.492352,-0.86977 8.294922,-3.0664 2.802595,-2.19662 4.203124,-4.47024 4.203124,-6.81836 v -4.88477 c 0,-3.25705 -0.83361,-5.908 -2.499999,-7.95313 -2.499629,-3.18132 -5.83205,-4.77343 -9.998047,-4.77343 z m 158.38281,17.49804 c 9.54394,0 18.14265,4.46828 25.79297,13.40625 7.65029,8.93798 11.47461,19.65626 11.47461,32.1543 0,24.61732 -3.82432,41.39601 -11.47461,50.33399 -7.65032,8.93797 -16.24903,13.40625 -25.79297,13.40625 -9.54396,0 -17.95109,-4.54531 -25.22265,-13.63477 -7.27169,-9.08949 -10.86882,-25.79114 -10.79297,-50.10547 0,-12.34653 3.63466,-23.02532 10.90625,-32.03906 7.19581,-9.01372 15.56541,-13.52149 25.10937,-13.52149 z"
       transform="matrix(0.26458333,0,0,0.26458333,-190.84147,113.58493)"
       id="path2452"
       inkscape:connector-curvature="0" />
  </g>
</svg>
