<?xml version="1.0" encoding="UTF-8" standalone="no"?>
<!-- Generator: Adobe Illustrator 18.0.0, SVG Export Plug-In . SVG Version: 6.00 Build 0)  -->

<svg
   xmlns:dc="http://purl.org/dc/elements/1.1/"
   xmlns:cc="http://creativecommons.org/ns#"
   xmlns:rdf="http://www.w3.org/1999/02/22-rdf-syntax-ns#"
   xmlns:svg="http://www.w3.org/2000/svg"
   xmlns="http://www.w3.org/2000/svg"
   xmlns:sodipodi="http://sodipodi.sourceforge.net/DTD/sodipodi-0.dtd"
   xmlns:inkscape="http://www.inkscape.org/namespaces/inkscape"
   version="1.1"
   id="Layer_1"
   x="0px"
   y="0px"
   viewBox="0 0 72.156334 73.100136"
   enable-background="new 0 0 325 75"
   xml:space="preserve"
   sodipodi:docname="logo_3.svg"
   width="72.156334"
   height="73.100136"
   inkscape:version="0.92.5 (2060ec1f9f, 2020-04-08)"><metadata
   id="metadata2619"><rdf:RDF><cc:Work
       rdf:about=""><dc:format>image/svg+xml</dc:format><dc:type
         rdf:resource="http://purl.org/dc/dcmitype/StillImage" /><dc:title /></cc:Work></rdf:RDF></metadata><defs
   id="defs2617">
	
	
</defs><sodipodi:namedview
   pagecolor="#ffffff"
   bordercolor="#666666"
   borderopacity="1"
   objecttolerance="10"
   gridtolerance="10"
   guidetolerance="10"
   inkscape:pageopacity="0"
   inkscape:pageshadow="2"
   inkscape:window-width="640"
   inkscape:window-height="480"
   id="namedview2615"
   showgrid="false"
   fit-margin-top="0"
   fit-margin-left="0"
   fit-margin-right="0"
   fit-margin-bottom="0"
   inkscape:zoom="2.8284271"
   inkscape:cx="139.61524"
   inkscape:cy="32.365201"
   inkscape:current-layer="Layer_1" />
<g
   id="g2610"
   transform="rotate(88.762064,37.056695,36.544828)"
   style="fill:#cccccc">
		<g
   id="g2590"
   style="fill:#cccccc">
			<g
   id="g2588"
   style="fill:#cccccc">
				<path
   style="fill:#cccccc"
   inkscape:connector-curvature="0"
   id="path2586"
   d="m 44.7,2.7 c 0,3 -1.9,5.5 -4.7,6.5 v 20.3 c 1,0.3 2,0.8 2.9,1.5 L 56.2,19.5 C 56,18.8 55.9,18.1 55.9,17.4 55.9,13.9 58.1,10.9 61.2,10 56.6,5.9 50.9,2.9 44.6,1.6 c 0.1,0.3 0.1,0.6 0.1,1 z" />
			</g>
		</g>
		<g
   id="g2596"
   style="fill:#cccccc">
			<g
   id="g2594"
   style="fill:#cccccc">
				<path
   style="fill:#cccccc"
   inkscape:connector-curvature="0"
   id="path2592"
   d="m 63.3,25.1 c -1.5,0 -2.8,-0.5 -4,-1.2 L 46.2,35.3 c 0.4,1 0.6,2.1 0.7,3.3 v 0.3 c 0,1.6 -0.4,3.1 -1,4.4 l 10,12.3 c 0.7,-0.2 1.5,-0.4 2.3,-0.4 3.2,0 6,2 7.2,4.9 5.1,-6.3 8.2,-14.3 8.2,-23 0,-5.7 -1.3,-11.1 -3.7,-15.9 -1.4,2.3 -3.8,3.9 -6.6,3.9 z" />
			</g>
		</g>
		<g
   id="g2602"
   style="fill:#cccccc">
			<g
   id="g2600"
   style="fill:#cccccc">
				<path
   style="fill:#cccccc"
   inkscape:connector-curvature="0"
   id="path2598"
   d="m 50.3,63.1 c 0,-1.8 0.6,-3.4 1.5,-4.7 L 42.5,46.9 C 40.9,48 39,48.6 37,48.6 c -1.5,0 -2.9,-0.3 -4.1,-0.9 L 22.3,58.4 c 0.3,0.8 0.6,1.7 0.6,2.7 v 0.2 c 0,3.2 -2,6 -4.9,7.1 0.1,0 0.1,0.1 0.2,0.1 0.2,0.1 0.4,0.2 0.6,0.3 0,0 0,0 0.1,0 5.3,3.1 11.5,4.8 18.1,4.8 6,0 11.6,-1.4 16.6,-4 -2,-1.4 -3.3,-3.8 -3.3,-6.5 z" />
			</g>
		</g>
		<g
   id="g2608"
   style="fill:#cccccc">
			<g
   id="g2606"
   style="fill:#cccccc">
				<path
   style="fill:#cccccc"
   d="M 30.099609,1.4003906 C 13.299609,4.6003906 0.5,19.299609 0.5,37.099609 c 0,8.3 2.8,16.001172 7.5,22.201172 0.9,-3.2 3.800781,-5.601562 7.300781,-5.601562 1,0 1.998438,0.201562 2.898438,0.601562 l 10.40039,-10.5 c -0.8,-1.4 -1.298828,-3.10039 -1.298828,-4.90039 0,-4.6 3.098828,-8.4 7.298828,-9.5 V 9.3007812 c -2.7,-1 -4.699218,-3.5999999 -4.699218,-6.5 0,-0.5999999 0.09922,-1.0003906 0.199218,-1.4003906 z M 15.800781,20.486328 c 5.170121,-0.0022 9.328897,4.069541 9.703125,9.148438 v 1.37308 c -0.371426,5.079072 -4.527169,9.151622 -9.697265,9.152344 -5.412177,7.56e-4 -9.836381,-4.421808 -9.837891,-9.833984 -0.00151,-5.412177 4.419855,-9.837544 9.832031,-9.839844 z m 0.002,3.375 c -3.588886,0.0015 -6.4619371,2.875957 -6.4609371,6.464844 10e-4,3.588887 2.8759571,6.461438 6.4648441,6.460937 3.588887,-5.01e-4 6.460937,-2.874003 6.460937,-6.46289 v -0.002 -0.002 c -0.002,-3.588886 -2.875957,-6.460484 -6.464844,-6.458984 z M 15.800781,25.5 c 2.5,0 4.599219,2.099219 4.699219,4.699219 v 0.101562 c 0,2.7 -2.099219,4.798828 -4.699219,4.798828 -2.6,0 -4.701172,-2.098828 -4.701172,-4.798828 0,-2.7 2.101172,-4.800781 4.701172,-4.800781 z"
   id="path2604"
   inkscape:connector-curvature="0"
   sodipodi:nodetypes="cscsccsccsccccsscccsssccccscssss" />
			</g>
		</g>
	</g>
</svg>