<?xml version="1.0" encoding="UTF-8" standalone="no"?>
<svg
   xmlns:dc="http://purl.org/dc/elements/1.1/"
   xmlns:cc="http://creativecommons.org/ns#"
   xmlns:rdf="http://www.w3.org/1999/02/22-rdf-syntax-ns#"
   xmlns:svg="http://www.w3.org/2000/svg"
   xmlns="http://www.w3.org/2000/svg"
   xmlns:sodipodi="http://sodipodi.sourceforge.net/DTD/sodipodi-0.dtd"
   xmlns:inkscape="http://www.inkscape.org/namespaces/inkscape"
   viewBox="0 0 73.099611 68.199222"
   version="1.1"
   id="svg1824"
   sodipodi:docname="logo_4.svg"
   width="73.099609"
   height="68.199219"
   inkscape:version="0.92.5 (2060ec1f9f, 2020-04-08)">
  <metadata
     id="metadata1830">
    <rdf:RDF>
      <cc:Work
         rdf:about="">
        <dc:format>image/svg+xml</dc:format>
        <dc:type
           rdf:resource="http://purl.org/dc/dcmitype/StillImage" />
        <dc:title />
      </cc:Work>
    </rdf:RDF>
  </metadata>
  <defs
     id="defs1828" />
  <sodipodi:namedview
     pagecolor="#ffffff"
     bordercolor="#666666"
     borderopacity="1"
     objecttolerance="10"
     gridtolerance="10"
     guidetolerance="10"
     inkscape:pageopacity="0"
     inkscape:pageshadow="2"
     inkscape:window-width="640"
     inkscape:window-height="480"
     id="namedview1826"
     showgrid="false"
     fit-margin-top="0"
     fit-margin-left="0"
     fit-margin-right="0"
     fit-margin-bottom="0"
     inkscape:zoom="2.9934001"
     inkscape:cx="77.554334"
     inkscape:cy="17.003137"
     inkscape:current-layer="svg1824" />
  <path
     style="fill:#cccccc"
     d="M 0,0 V 68.199219 H 73.09961 V 0 Z m 62.611329,15.414062 h 0.61914 v 4.529297 0.01172 0.0098 H 62.63086 a 0.59,0.59 0 0 0 -0.310547,-0.550782 c -0.2,-0.129999 -0.52,-0.199218 -1,-0.199218 h -7.199219 v 4.259765 h 2.798828 c 0.47,0 0.820313,-0.05063 1.070313,-0.140625 0.25,-0.09 0.380859,-0.29914 0.380859,-0.61914 h 0.619141 v 4.939453 h -0.619141 c 0,-0.53 -0.130859,-0.86 -0.380859,-1 -0.27,-0.16 -0.610313,-0.240235 -1.070313,-0.240235 h -2.798828 v 6.660157 a 0.53,0.53 0 0 0 0.269531,0.480469 1.91,1.91 0 0 0 0.759766,0.138671 v 0.621094 h -5.839844 v -0.621094 c 0.6,0 0.900391,-0.21914 0.900391,-0.61914 v -15.59961 c 0,-0.42 -0.300391,-0.621093 -0.900391,-0.621093 V 16.23441 h 12 c 0.48,0 0.82,-0.05922 1,-0.199219 a 0.76,0.76 0 0 0 0.300782,-0.621094 z M 9.8496094,16.214844 h 5.7011726 v 0.61914 c -0.6,0 -0.900391,0.221094 -0.900391,0.621094 v 15.59961 c 0,0.419999 0.300391,0.61914 0.900391,0.61914 v 0.621094 H 9.8496094 v -0.621094 c 0.6000006,0 0.9003906,-0.219141 0.9003906,-0.61914 v -15.59961 c 0,-0.42 -0.30039,-0.621094 -0.9003906,-0.621094 z M 21.5,16.234374 h 6.410157 v 0.619141 a 0.83,0.83 0 0 0 -0.378907,0.101562 c -0.11,0.06 -0.169921,0.158828 -0.169921,0.298828 A 0.95,0.95 0 0 0 27.5,17.705077 l 0.300782,0.580078 4.90039,8.929688 4.929688,-8.800782 c 0.16,-0.28 0.269843,-0.519687 0.339843,-0.679687 a 1.05,1.05 0 0 0 0.140626,-0.480469 c 0,-0.25 -0.151172,-0.378906 -0.451172,-0.378906 v -0.621094 h 6.349609 V 16.875 a 0.87,0.87 0 0 0 -0.478516,0.138672 c -0.13,0.06 -0.201171,0.200391 -0.201171,0.40039 v 15.63086 a 0.587,0.587 0 0 0 0.210937,0.478516 0.87,0.87 0 0 0 0.478516,0.140624 v 0.621094 h -5.398438 v -0.621094 c 0.62,0 0.919922,-0.21914 0.919922,-0.61914 V 21.644531 h -0.07031 l -6.90039,12.640625 h -0.09961 L 25.710938,21.613281 h -0.07031 v 11.441407 c 0,0.419999 0.318985,0.61914 0.958985,0.61914 v 0.621094 h -5.148438 l 0.04883,-0.02148 v -0.59961 a 0.87,0.87 0 0 0 0.480469,-0.138672 c 0.13,-0.12 0.199219,-0.280468 0.199219,-0.480468 V 17.394531 c 0,-0.2 -0.05922,-0.33039 -0.199219,-0.40039 a 0.87,0.87 0 0 0 -0.480469,-0.140625 z m 5.453125,28.71875 c 1.387808,0 2.492599,0.38177 3.441407,1.203125 1.189549,1.005453 1.898437,2.619007 1.898437,4.261719 0,1.656873 -0.666404,3.115157 -1.898437,4.078125 -0.948808,0.764711 -2.053104,1.105468 -3.511719,1.105468 -3.073003,1e-6 -5.283203,-2.165771 -5.283203,-5.167968 0,-1.656873 0.708887,-3.257729 1.898437,-4.277344 0.920485,-0.807194 2.081431,-1.203125 3.455078,-1.203125 z M 9.0117187,45.164062 h 5.5078133 v 0.765626 h -0.212891 c -0.764711,0.01416 -1.048329,0.05712 -1.175781,0.21289 -0.09913,0.141613 -0.09766,0.198171 -0.09766,1.076172 v 2.519531 h 3.695313 V 47.21875 c 0,-0.892162 -4.79e-4,-0.934559 -0.09961,-1.076172 -0.127452,-0.155769 -0.409608,-0.198732 -1.160157,-0.21289 h -0.21289 v -0.765626 h 5.509765 v 0.765626 h -0.21289 c -0.750549,0.01416 -1.048329,0.05712 -1.175782,0.21289 -0.09913,0.141613 -0.09961,0.198171 -0.09961,1.076172 v 6.130859 c 0,0.863839 4.8e-4,0.935048 0.09961,1.0625 0.127453,0.155779 0.411072,0.212891 1.175782,0.212891 h 0.21289 v 0.763672 H 15.25586 V 54.625 h 0.21289 c 0.750549,0 1.032705,-0.05712 1.160157,-0.212891 0.09913,-0.127452 0.09961,-0.184499 0.09961,-1.0625 v -2.761718 h -3.695313 v 2.761718 c 2e-6,0.878001 -0.0015,0.920887 0.09766,1.0625 0.127452,0.155779 0.41107,0.212891 1.175781,0.212891 h 0.212891 v 0.763672 H 9.0117187 V 54.625 h 0.2109375 c 0.7505494,0 1.0346578,-0.05712 1.1621098,-0.212891 0.09913,-0.141613 0.09961,-0.184499 0.09961,-1.0625 V 47.21875 c 0,-0.878001 -4.79e-4,-0.934559 -0.09961,-1.076172 -0.127451,-0.155769 -0.4115604,-0.198732 -1.1621098,-0.21289 H 9.0117187 Z m 24.3417973,0 h 9.375 l 0.212891,3.837891 h -0.75 c -0.21242,-1.161227 -0.439421,-1.755818 -0.835938,-2.265625 -0.453162,-0.580614 -0.920361,-0.835937 -1.529297,-0.835937 -0.424837,0 -0.509765,0.09908 -0.509765,0.566406 v 6.882812 c 0,0.863839 4.79e-4,0.935048 0.09961,1.0625 0.127452,0.155779 0.409118,0.212891 1.173828,0.212891 h 0.3125 v 0.763672 H 35.181641 V 54.625 h 0.310547 c 0.76471,0 1.048329,-0.05712 1.175781,-0.212891 0.09913,-0.141613 0.09961,-0.184499 0.09961,-1.0625 v -6.882812 c -10e-7,-0.467322 -0.08493,-0.566406 -0.509766,-0.566406 -0.665581,0 -1.189417,0.326116 -1.642578,1.005859 -0.339872,0.495645 -0.538559,1.047766 -0.722656,2.095703 h -0.75 z m 10.267578,0 h 9.501953 l 0.08594,3.681641 h -0.736328 c -0.594775,-2.110035 -1.444681,-2.873536 -3.214844,-2.916015 h -0.396484 c -1.047937,0.01416 -1.247071,0.225504 -1.21875,1.216796 v 2.564454 h 0.240234 c 1.118743,0 1.799304,-0.708879 1.955078,-2.011719 h 0.763672 V 52.5 h -0.763674 c -0.155774,-1.30284 -0.836335,-2.009766 -1.955078,-2.009766 h -0.240234 v 3.128907 c -0.01416,0.835518 0.241615,1.034179 1.27539,1.005859 h 0.423828 c 1.713518,-0.01416 2.776323,-0.991532 3.314453,-3.044922 h 0.75 l -0.169921,3.808594 H 43.621094 V 54.625 h 0.212891 c 0.750549,0 1.032705,-0.05712 1.160156,-0.212891 0.09913,-0.141613 0.09961,-0.184499 0.09961,-1.0625 v -6.146484 c 0,-0.878001 -4.79e-4,-0.918934 -0.09961,-1.060547 -0.127451,-0.155769 -0.409607,-0.21289 -1.160156,-0.21289 h -0.212891 z m 10.791016,0 h 5.607422 v 0.765626 h -0.310547 c -0.778872,-10e-7 -1.04833,0.05712 -1.175782,0.21289 -0.09913,0.141613 -0.09961,0.182546 -0.09961,1.060547 v 6.416016 c -0.01416,0.835518 0.241616,1.034179 1.275391,1.005859 h 0.296875 c 1.727679,-0.02832 2.733839,-0.949048 3.314453,-3.044922 h 0.75 l -0.169921,3.808594 H 54.41211 V 54.625 H 54.625 c 0.750549,0 1.032705,-0.05712 1.160157,-0.212891 0.09913,-0.141613 0.09961,-0.184008 0.09961,-1.076171 v -6.132813 c 0,-0.878001 -4.79e-4,-0.918934 -0.09961,-1.060547 -0.127452,-0.155769 -0.395446,-0.21289 -1.160157,-0.21289 h -0.21289 z m -27.445313,0.525391 c -0.835517,0 -1.401822,0.310002 -1.8125,1.003906 -0.481485,0.807195 -0.722656,1.941283 -0.722656,3.470703 0,1.501099 0.255333,2.733328 0.722656,3.611329 0.396516,0.736388 0.991144,1.089843 1.8125,1.089843 1.614389,0 2.492188,-1.556894 2.492188,-4.43164 0,-1.529421 -0.25338,-2.804619 -0.720703,-3.654297 -0.410678,-0.722227 -1.006774,-1.089844 -1.771485,-1.089844 z"
     id="path1818"
     inkscape:connector-curvature="0" />
</svg>
